# xmcd CD database file
#
# Track frame offsets:
#	182
#	20827
#	41067
#	59200
#	78397
#	92110
#	112277
#	128747
#	146212
#	163215
#
# Disc length: 2391 seconds
#
# Revision: 0
# Processed by: cddbd v1.5PL3 Copyright (c) Steve Scherf et al.
# Submitted via: CDex 1.51
#
DISCID=9c09550a
DTITLE=La Artilleria - El Gato
DYEAR=1900
DGENRE=Merengue
TTITLE0=Ambiente De Esquina
TTITLE1=Pena De Amor
TTITLE2=La Paradoja
TTITLE3=El Siete
TTITLE4=Te Esperare
TTITLE5=El Gato
TTITLE6=Llegaste Tarde
TTITLE7=La Mas Bonita
TTITLE8=Vivamos La Realidad
TTITLE9=El Alegron
EXTD=
EXTT0=
EXTT1=
EXTT2=
EXTT3=
EXTT4=
EXTT5=
EXTT6=
EXTT7=
EXTT8=
EXTT9=
PLAYORDER=
